<svg width="32" height="32" viewBox="0 0 32 32" fill="none" xmlns="http://www.w3.org/2000/svg">
<path opacity="0.5" d="M15.7064 10.2743C14.9505 10.2743 14.214 10.4293 13.5163 10.7007C12.8186 10.972 12.1984 11.418 11.6558 11.9413C11.1131 12.4646 10.7061 13.1041 10.4154 13.8018C10.1247 14.4995 9.98901 15.2362 9.98901 15.9921C9.98901 16.748 10.1441 17.4842 10.4154 18.1819C10.7061 18.8796 11.1325 19.4998 11.6558 20.0424C12.1791 20.5851 12.8186 20.9924 13.5163 21.2831C14.214 21.5738 14.9505 21.7094 15.7064 21.7094C16.4622 21.7094 17.1987 21.5544 17.8964 21.2831C18.5941 21.0117 19.2143 20.5657 19.757 20.0424C20.2997 19.5191 20.7066 18.8796 20.9974 18.1819C21.2881 17.4842 21.4237 16.748 21.4237 15.9921C21.4237 15.2362 21.2687 14.4995 20.9974 13.8018C20.7066 13.1041 20.2803 12.484 19.757 11.9413C19.2337 11.3986 18.5941 10.9914 17.8964 10.7007C17.1987 10.4099 16.4428 10.2743 15.7064 10.2743ZM15.7064 7.83231C20.2027 7.83231 23.8657 11.4957 23.8657 15.9921C23.8657 20.4885 20.2027 24.1514 15.7064 24.1514C11.21 24.1514 7.54702 20.4885 7.54702 15.9921C7.52764 11.4957 11.1906 7.83231 15.7064 7.83231ZM23.8657 6.1852C24.7766 6.1852 25.4937 6.92138 25.4937 7.81291C25.4937 8.70443 24.7572 9.44108 23.8657 9.44108C22.9742 9.44108 22.2377 8.70443 22.2377 7.81291C22.2184 6.92138 22.9548 6.1852 23.8657 6.1852ZM9.58202 0.487305C4.40732 0.487305 0.20166 4.69268 0.20166 9.8674V22.1163C0.20166 27.2911 4.40732 31.4969 9.58202 31.4969H21.8307C27.0054 31.4969 31.2111 27.2911 31.2111 22.1163V9.8674C31.2111 4.69268 27.0054 0.487305 21.8307 0.487305H9.58202Z" fill="white"/>
</svg>
