<svg width="36" height="36" viewBox="0 0 36 36" fill="none" xmlns="http://www.w3.org/2000/svg">
<path d="M17.325 0.0270042C16.9594 0.0973167 16.2914 0.364502 15.9539 0.58247C15.6094 0.800442 15.293 1.11685 14.6672 1.87622C14.0484 2.6145 13.5141 2.69888 12.3258 2.24185C11.4117 1.89029 10.8281 1.827 10.1039 1.97466C9.13359 2.1856 8.28281 2.74107 7.77656 3.49341C7.39687 4.06997 7.23516 4.51997 7.10859 5.39185C6.92578 6.60825 6.58125 6.95278 5.36484 7.1356C4.49297 7.26216 4.04297 7.42388 3.46641 7.80357C2.36953 8.53481 1.71562 10.0043 1.9125 11.2981C1.95469 11.5934 2.10234 12.1137 2.24297 12.4583C2.67187 13.5129 2.56641 14.0895 1.84922 14.6942C0.773437 15.5872 0.478125 15.9458 0.16875 16.7543C0.028125 17.1059 0 17.3028 0 17.9848C0 18.6668 0.028125 18.8637 0.16875 19.2153C0.478125 20.0239 0.773437 20.3825 1.84922 21.2754C2.56641 21.8801 2.67187 22.4567 2.24297 23.5114C2.10234 23.8559 1.95469 24.3762 1.9125 24.6715C1.71562 25.9653 2.36953 27.4348 3.46641 28.1661C4.04297 28.5458 4.49297 28.7075 5.36484 28.834C6.58125 29.0168 6.92578 29.3614 7.10859 30.5778C7.23516 31.4497 7.39687 31.8997 7.77656 32.4762C8.28281 33.2286 9.13359 33.784 10.1039 33.995C10.8281 34.1426 11.4117 34.0793 12.3258 33.7278C13.5211 33.2708 14.0203 33.3481 14.6391 34.0723C15.6094 35.2114 15.9187 35.4645 16.7273 35.7739C17.0789 35.9145 17.2758 35.9426 17.9578 35.9426C18.6398 35.9426 18.8367 35.9145 19.1883 35.7739C19.9969 35.4645 20.3062 35.2114 21.2766 34.0723C21.9023 33.3411 22.3945 33.2708 23.618 33.7418C24.3422 34.0231 24.4336 34.0442 25.0945 34.0442C25.9594 34.0442 26.5781 33.8473 27.2742 33.3551C28.0969 32.7645 28.5891 31.9278 28.7648 30.8309C28.9125 29.8395 28.9758 29.6708 29.3133 29.3403C29.6437 29.0028 29.8125 28.9395 30.8039 28.7918C31.9008 28.6161 32.7375 28.1239 33.3281 27.3012C33.8203 26.6051 34.0172 25.9864 34.0172 25.1215C34.0172 24.4606 33.9961 24.3692 33.7148 23.645C33.2437 22.4215 33.3141 21.9293 34.0453 21.3036C35.1914 20.3262 35.4445 20.0098 35.7398 19.2223C35.9297 18.709 36 17.8723 35.8945 17.3168C35.8523 17.0848 35.6906 16.6348 35.5359 16.3184C35.3039 15.8543 35.1633 15.6645 34.7484 15.2989C33.7008 14.3778 33.518 14.1598 33.4406 13.7942C33.3492 13.3793 33.3914 13.1895 33.7289 12.2754C33.8836 11.8676 34.0031 11.4106 34.0312 11.1153C34.1437 9.87075 33.4828 8.49966 32.4492 7.80357C31.8727 7.42388 31.4227 7.26216 30.5508 7.1356C29.3344 6.95278 28.9828 6.60122 28.807 5.38482C28.6805 4.51294 28.5187 4.06997 28.1391 3.49341C27.4078 2.39653 25.9383 1.74263 24.6445 1.9395C24.3492 1.98169 23.8289 2.13638 23.4773 2.277C22.4227 2.70591 21.8812 2.6145 21.2766 1.89732C20.2992 0.751221 19.9828 0.498096 19.1883 0.202785C18.7734 0.0480957 17.7398 -0.0503426 17.325 0.0270042ZM18.5766 1.48247C19.0969 1.6231 19.4625 1.90435 20.0039 2.59341C20.6648 3.43013 21.2062 3.77466 22.0711 3.90825C22.6477 3.99966 23.1891 3.91528 23.9555 3.59888C25.0734 3.14185 25.8961 3.24028 26.6414 3.92935C27.0914 4.34419 27.2883 4.76607 27.4148 5.58872C27.5766 6.6856 27.7875 7.1356 28.3711 7.69106C28.9266 8.20435 29.3273 8.38013 30.3398 8.52778C31.1766 8.65435 31.5914 8.84419 32.0062 9.29419C32.4352 9.76528 32.5969 10.1731 32.6039 10.8129C32.6109 11.27 32.5758 11.4317 32.3437 11.9872C31.9219 13.0137 31.8867 13.8153 32.2312 14.5887C32.4773 15.1442 32.7234 15.4465 33.3352 15.9247C34.2281 16.6208 34.5164 17.12 34.5164 17.9848C34.5164 18.8497 34.2281 19.3489 33.3352 20.045C31.9711 21.1137 31.6617 22.3231 32.3437 23.9825C32.5758 24.5379 32.6109 24.6997 32.6039 25.1567C32.5969 25.7965 32.4352 26.2043 32.0062 26.6754C31.5914 27.1254 31.1766 27.3153 30.3398 27.4418C29.3273 27.5895 28.9266 27.7653 28.3711 28.2786C27.7875 28.834 27.5766 29.284 27.4148 30.3809C27.2883 31.2036 27.0914 31.6254 26.6484 32.0333C26.1703 32.4692 25.7695 32.6309 25.1297 32.6379C24.6797 32.6379 24.5109 32.6028 23.9555 32.3708C22.9289 31.9489 22.1344 31.9137 21.3609 32.2512C20.7984 32.5043 20.4961 32.7504 20.018 33.3622C19.3219 34.2551 18.8227 34.5434 17.9578 34.5434C17.093 34.5434 16.5937 34.2551 15.8906 33.3551C15.1594 32.42 14.4422 32.0403 13.4227 32.0403C12.8039 32.0403 12.6984 32.0684 11.8758 32.4059C11.4117 32.5958 11.2219 32.6379 10.7859 32.6379C10.1461 32.6379 9.75234 32.4833 9.27422 32.0403C8.81719 31.6184 8.62734 31.2036 8.50078 30.3668C8.34609 29.3122 8.11406 28.82 7.54453 28.2786C6.96797 27.7442 6.62344 27.5965 5.56172 27.4418C4.73906 27.3153 4.31719 27.1184 3.90234 26.6684C3.45937 26.1903 3.30469 25.7965 3.30469 25.1567C3.30469 24.7067 3.34687 24.5309 3.57187 23.9754C4.00078 22.9418 4.02187 22.1192 3.64922 21.3106C3.40312 20.7692 3.15703 20.4809 2.54531 20.0168C1.69453 19.37 1.39922 18.8426 1.39922 17.9848C1.39922 17.134 1.70156 16.5926 2.51719 15.9809C3.34687 15.3551 3.74766 14.7293 3.88125 13.8715C3.97266 13.295 3.88125 12.7536 3.57187 11.9872C3.11484 10.8692 3.21328 10.0465 3.90234 9.30122C4.31719 8.85122 4.73906 8.65435 5.56172 8.52778C6.62344 8.3731 6.96797 8.22544 7.54453 7.69106C8.11406 7.14966 8.34609 6.65747 8.50078 5.60278C8.62734 4.76607 8.81719 4.35122 9.27422 3.92935C9.75234 3.48638 10.1461 3.33169 10.7859 3.33169C11.2359 3.33169 11.4117 3.37388 11.9672 3.59888C12.7055 3.90122 13.2891 3.99966 13.8656 3.90825C14.7023 3.77466 15.2648 3.41607 15.8977 2.60747C16.7273 1.54575 17.5219 1.21528 18.5766 1.48247Z" fill="black"/>
<path d="M16.5375 4.14026C15.2015 4.26682 13.514 4.72385 12.3187 5.27229C11.8125 5.50432 11.6859 5.59573 11.5945 5.79963C11.4609 6.08088 11.5031 6.34104 11.714 6.57307C11.9812 6.85432 12.1992 6.84729 13.0219 6.49573C18.8789 4.02776 25.5375 6.22151 28.7437 11.6778C30.8531 15.2567 31.0219 19.6934 29.2008 23.441C28.5047 24.8754 27.3867 26.3449 26.1984 27.3715C21.4312 31.534 14.4633 31.5129 9.68202 27.3364C6.77108 24.7981 5.16796 20.8395 5.49842 17.0215C5.70233 14.6942 6.34921 12.866 7.65702 10.9184C8.33202 9.90589 8.36717 9.7512 8.05077 9.3926C7.88202 9.20276 7.79764 9.16057 7.55155 9.16057C7.29139 9.16057 7.22108 9.20276 6.98905 9.45588C6.60233 9.89182 5.97655 10.8551 5.5828 11.6285C3.59296 15.5028 3.53671 20.0801 5.44217 24.0176C6.8203 26.8653 9.01405 29.066 11.8758 30.4723C15.7219 32.3567 20.1164 32.3707 23.9906 30.5004C26.8383 29.1293 29.039 26.9285 30.4453 24.0668C32.3297 20.2207 32.3367 15.8262 30.4734 11.952C27.9351 6.68557 22.3875 3.57776 16.5375 4.14026Z" fill="black"/>
<path d="M9.23204 7.21993C8.96485 7.48712 8.95782 7.83165 9.20391 8.12696C9.42891 8.39415 9.66094 8.4504 9.97735 8.32383C10.3078 8.18321 10.4766 7.81055 10.3641 7.47305C10.2023 6.9879 9.59766 6.8543 9.23204 7.21993Z" fill="black"/>
<path d="M16.2351 7.62077C14.5617 7.93014 13.1203 8.54186 11.8055 9.51217C10.8914 10.1872 10.7016 10.602 11.1305 11.0309C11.4398 11.3333 11.7984 11.3192 12.2062 10.9747C12.6703 10.5809 13.6125 9.98327 14.182 9.72311C15.4195 9.15358 16.5305 8.91452 17.9508 8.91452C19.9055 8.91452 21.4172 9.37858 23.0203 10.4614C23.3508 10.6864 23.6883 10.8903 23.7726 10.9114C24.0187 10.9887 24.4195 10.7778 24.525 10.5176C24.7219 10.0536 24.5391 9.77936 23.618 9.16061C22.6406 8.5067 21.3609 7.97233 20.0672 7.68405C19.3219 7.5153 17.0016 7.47311 16.2351 7.62077Z" fill="black"/>
<path d="M23.3719 13.8293C21.8109 14.1387 21.5438 16.2129 22.9711 16.9442C23.3508 17.134 23.9836 17.127 24.3914 16.9301C24.9961 16.6348 25.4109 15.8684 25.3055 15.2215C25.2 14.5887 24.6375 13.9629 24.082 13.8645C23.9414 13.8434 23.7797 13.8153 23.7234 13.8012C23.6672 13.7942 23.5055 13.8082 23.3719 13.8293ZM23.8922 15.3481C23.9555 15.5239 23.857 15.6645 23.6813 15.6645C23.4984 15.6645 23.4 15.5239 23.4703 15.3481C23.4914 15.2918 23.5828 15.2426 23.6813 15.2426C23.7727 15.2426 23.8641 15.2918 23.8922 15.3481Z" fill="#0EB062"/>
<path d="M27.5906 13.8927C27.4078 13.9841 26.8172 14.7434 25.0313 17.2044C22.5211 20.6567 22.5352 20.6356 22.8586 21.0575C23.0414 21.3106 23.3719 21.4091 23.6531 21.2895C23.8149 21.2263 24.3984 20.4669 26.0789 18.1606C27.2953 16.4872 28.357 15.0036 28.4414 14.8559C28.568 14.645 28.582 14.5536 28.5328 14.3497C28.4203 13.9138 27.9774 13.6958 27.5906 13.8927Z" fill="#0EB062"/>
<path d="M12.5649 14.1599C12.143 14.3146 11.6719 14.7646 11.4399 15.2286L11.243 15.6294V17.8442C11.243 20.0521 11.243 20.0591 11.4188 20.4106C11.6367 20.8536 12.0024 21.2192 12.4453 21.4372C12.7406 21.5849 12.8883 21.606 13.493 21.606C14.3649 21.606 14.7797 21.4442 15.2508 20.9239C15.7711 20.3474 15.7922 20.2208 15.7641 17.6896C15.743 15.5591 15.7359 15.4817 15.5813 15.1935C15.3633 14.7786 14.9766 14.413 14.5547 14.2161C14.2524 14.0755 14.0906 14.0474 13.5281 14.0544C13.1274 14.0544 12.7406 14.1036 12.5649 14.1599ZM14.168 15.6575L14.3719 15.8614V17.8091C14.3719 19.0044 14.3438 19.806 14.3016 19.8903C14.1891 20.0942 13.8516 20.2349 13.4649 20.2349C13.1695 20.2349 13.0711 20.1997 12.8813 20.031L12.6492 19.8271L12.6281 17.9427C12.6 15.538 12.6281 15.4536 13.5141 15.4536C13.9149 15.4536 13.9852 15.4747 14.168 15.6575Z" fill="#0EB062"/>
<path d="M17.6977 14.2583C17.2055 14.5044 16.9594 14.7646 16.7203 15.2778C16.5586 15.6224 16.5516 15.6716 16.5516 17.781C16.5516 20.2138 16.5727 20.3544 17.0578 20.9028C17.2125 21.0786 17.5078 21.3106 17.7047 21.4161C18.0281 21.5849 18.1406 21.5989 18.8016 21.606C19.4274 21.606 19.5891 21.5849 19.8633 21.4442C20.3063 21.2263 20.6859 20.8396 20.9039 20.3755L21.0867 19.9888V17.8091C21.0867 15.7278 21.0797 15.6153 20.9391 15.306C20.7352 14.863 20.3555 14.4622 19.9477 14.2583C19.6664 14.1106 19.4906 14.0755 18.8719 14.0614C18.1617 14.0403 18.1125 14.0474 17.6977 14.2583ZM19.4695 15.6224C19.5609 15.7138 19.6524 15.8966 19.6805 16.0231C19.7016 16.1567 19.7156 17.0638 19.7016 18.0411L19.6805 19.8271L19.4414 20.038C19.2164 20.2349 19.1742 20.2489 18.7453 20.2208C18.3516 20.1927 18.2672 20.1646 18.1266 19.9958L17.9578 19.806V17.8231V15.8474L18.1477 15.6505C18.3164 15.4747 18.3797 15.4536 18.8156 15.4536C19.2305 15.4536 19.3219 15.4747 19.4695 15.6224Z" fill="#0EB062"/>
<path d="M7.95938 14.195C7.79766 14.2583 7.31251 14.8067 7.08047 15.2075C6.92579 15.4676 6.97501 15.7348 7.22813 15.9879C7.58672 16.3465 7.94532 16.3044 8.33907 15.8473L8.52891 15.6294L8.53594 17.9286V20.2348H8.18438C7.90313 20.2348 7.79063 20.27 7.61485 20.4317C7.24219 20.7622 7.35469 21.402 7.81876 21.5778C7.92422 21.62 8.55704 21.6411 9.36563 21.627L10.7297 21.6059L10.8984 21.409C11.1445 21.1208 11.1305 20.7129 10.8633 20.4387C10.6875 20.27 10.6031 20.2348 10.3008 20.2348H9.94219V17.4223V14.6098L9.73829 14.3848C9.53438 14.1528 9.52735 14.1528 8.83829 14.1387C8.4586 14.1317 8.06485 14.1528 7.95938 14.195Z" fill="#0EB062"/>
<path d="M27.0422 18.1887C26.332 18.4348 25.9453 18.9832 25.9383 19.7496C25.9383 20.1434 25.9664 20.2629 26.1492 20.5512C26.4656 21.0645 26.8594 21.3106 27.4078 21.3457C27.9703 21.3809 28.3008 21.2754 28.6664 20.945C29.032 20.6145 29.2078 20.2278 29.2078 19.7426C29.2078 18.6035 28.1039 17.809 27.0422 18.1887ZM27.7875 19.7637C27.7524 20.0239 27.3164 19.9957 27.3094 19.7285C27.3094 19.7004 27.3586 19.6301 27.4219 19.5739C27.5695 19.4192 27.8156 19.5528 27.7875 19.7637Z" fill="#0EB062"/>
<path d="M23.7867 24.6574C23.1961 25.2481 24.0188 26.1762 24.6867 25.677C25.2211 25.2762 24.9539 24.4535 24.2859 24.4535C24.0539 24.4535 23.9484 24.4957 23.7867 24.6574Z" fill="black"/>
<path d="M11.6508 24.7629C11.3625 24.8895 11.1797 25.234 11.243 25.5223C11.3062 25.7965 11.5101 25.9934 12.2273 26.4574C13.0289 26.9848 13.718 27.3153 14.6531 27.6176C15.7711 27.9832 16.6359 28.1168 17.8805 28.1168C19.3922 28.1168 20.5594 27.8848 21.9164 27.3223C22.4578 27.0973 22.6476 26.9848 22.7461 26.816C22.9711 26.4434 22.8867 26.0496 22.5281 25.8387C22.2469 25.6699 22.1484 25.684 21.4242 26.0004C20.2289 26.5137 19.2305 26.7106 17.8523 26.7106C15.9539 26.7106 14.3508 26.2114 12.7758 25.1285C12.1148 24.6785 11.9601 24.6293 11.6508 24.7629Z" fill="black"/>
</svg>
