<svg width="62" height="62" viewBox="0 0 62 62" fill="none" xmlns="http://www.w3.org/2000/svg">
<path opacity="0.8" d="M31.0832 61.7537C47.9737 61.7537 61.6662 48.0611 61.6662 31.1704C61.6662 14.2798 47.9737 0.587158 31.0832 0.587158C14.1926 0.587158 0.500122 14.2798 0.500122 31.1704C0.500122 48.0611 14.1926 61.7537 31.0832 61.7537Z" fill="#010101"/>
<path d="M34.7074 42.3919L25.579 32.0037C25.4821 31.8874 25.4046 31.7519 25.3464 31.6162C25.2883 31.4805 25.2689 31.3255 25.2689 31.1899C25.2689 31.0542 25.2883 30.899 25.3464 30.7633C25.4046 30.6276 25.4821 30.4921 25.579 30.3758L34.7074 19.9876C34.94 19.7163 35.2501 19.5807 35.6183 19.5613C35.9865 19.5613 36.2773 19.6969 36.5292 19.9682C36.7812 20.2589 36.9168 20.6079 36.9168 21.0149C36.9168 21.4219 36.7812 21.7706 36.5292 22.0613L28.5055 31.1899L36.5292 40.3183C36.7812 40.609 36.9168 40.9579 36.9168 41.3649C36.9168 41.7719 36.8005 42.1014 36.5486 42.3728C36.2966 42.6635 35.9865 42.8185 35.6183 42.8185C35.2501 42.7991 34.94 42.6632 34.7074 42.3919Z" fill="#E3E3E3"/>
</svg>
