<svg width="102" height="39" viewBox="0 0 102 39" fill="none" xmlns="http://www.w3.org/2000/svg">
<path d="M44.4675 0.387846C43.6729 0.65918 42.9558 1.08556 42.3356 1.64761C41.7154 2.20966 41.2115 2.86861 40.8626 3.62447C40.3394 4.90362 40.2425 6.33781 40.5913 7.6751L40.8433 8.54725L41.4828 8.45034C42.6845 8.17901 43.7892 7.59758 44.6807 6.7642C45.3396 6.10524 45.8241 5.29124 46.0955 4.39971C46.3668 3.50819 46.4443 2.55851 46.2893 1.64761C46.2118 1.24061 46.1149 0.83361 45.9792 0.426609C45.8242 0.116513 45.2427 0.0971314 44.4675 0.387846Z" fill="white"/>
<path d="M33.4398 2.40348C33.0328 3.76015 33.0715 5.21372 33.5367 6.57039C34.1956 8.27592 36.2112 9.90392 37.9167 10.1365C38.4982 10.214 38.5369 10.1946 38.7114 9.71012C38.9827 8.97364 39.1184 8.1984 39.099 7.42316C39.0796 6.64792 38.8858 5.87268 38.5757 5.17497C38.2462 4.45787 37.8004 3.83767 37.219 3.29501C36.657 2.77172 35.9787 2.34534 35.2422 2.09339C33.7886 1.58948 33.7692 1.58948 33.4398 2.40348Z" fill="white"/>
<path d="M11.6363 15.4856C13.1868 16.3965 13.8845 18.102 13.8845 20.9704C13.8845 24.8466 12.5472 26.7653 9.75636 26.9397C7.54694 27.056 6.2678 26.3002 5.31814 24.3039C4.81424 23.2767 4.81425 23.2186 4.81425 21.0479C4.81425 19.1098 4.85301 18.7416 5.1631 17.9857C5.62824 16.8035 6.51975 15.8344 7.66322 15.2917C8.96174 14.8266 10.3959 14.8847 11.6363 15.4856ZM6.5779 11.5706C5.33752 11.9388 4.21343 12.5978 3.26377 13.4699C2.31411 14.3421 1.57763 15.4274 1.11249 16.6097C0.0659219 19.4974 0.104685 22.6371 1.19002 25.5055C1.8102 26.9203 2.75987 28.1801 3.98087 29.1492C5.35691 30.157 6.32595 30.4864 8.3028 30.564C10.1827 30.6415 11.4425 30.3895 12.6054 29.7694C12.8379 29.6337 13.0899 29.498 13.3418 29.3817C13.4775 29.3817 13.3806 31.94 13.2449 32.4827C13.0511 32.9672 12.741 33.413 12.3728 33.7618C12.0045 34.1107 11.5394 34.4014 11.0549 34.5952C10.4347 34.7696 9.81452 34.8666 9.17495 34.8472C8.57414 34.8859 7.99271 34.789 7.43066 34.5565C6.888 34.3239 6.3841 33.975 5.99648 33.5293L5.51196 32.9478L3.69015 33.8394C3.0312 34.1107 2.41101 34.4789 1.86834 34.9247C2.17844 35.4092 2.54667 35.855 2.97305 36.2426C4.853 38.1419 6.79109 38.859 9.75636 38.7234C13.1674 38.5683 15.6288 37.3086 16.7335 35.1379C17.47 33.6843 17.4893 33.3161 17.4893 22.172V11.745H14.0008V12.3458C14.0202 12.559 14.0008 12.7528 13.9426 12.9466C13.9039 12.9466 13.5356 12.6947 13.0899 12.4234C11.8301 11.6094 10.3572 11.2217 8.86484 11.2993C8.08961 11.338 7.33375 11.4155 6.5779 11.5706Z" fill="white"/>
<path d="M40.7076 15.3693C41.3278 15.6019 41.8898 15.9701 42.355 16.4353C42.8201 16.9004 43.1884 17.4625 43.4403 18.0827C43.7504 18.8773 43.7892 19.2455 43.7892 20.9704C43.7892 22.6566 43.7504 23.0636 43.4597 23.8001C43.1302 24.866 42.4131 25.7382 41.4441 26.2808C40.7076 26.6878 40.4944 26.7266 39.1765 26.7266C37.8974 26.7266 37.6454 26.6878 36.8508 26.2808C35.3197 25.5444 34.4863 23.9551 34.3507 21.5325C34.2538 19.4587 34.6414 17.8113 35.5523 16.6679C36.5795 15.3112 38.7308 14.7879 40.7076 15.3693ZM36.4826 11.6094C35.3197 11.9389 34.2538 12.501 33.3235 13.2568C32.3932 14.0127 31.6374 14.9623 31.0753 16.0283C30.2807 17.54 29.9125 19.2455 29.99 20.9704C30.0094 24.1489 30.7265 26.1258 32.6258 28.0445C34.4088 29.8663 36.2888 30.6028 39.0215 30.6028C41.8511 30.6028 43.6729 29.8857 45.4559 28.122C47.3359 26.2227 48.1499 24.0714 48.1499 20.9704C48.1886 20.0208 48.0917 19.0905 47.8979 18.1602C47.5297 16.5903 46.7351 15.1368 45.611 13.9739C44.4869 12.811 43.0527 11.9777 41.4829 11.5707C39.8549 11.2412 38.1493 11.2606 36.4826 11.6094Z" fill="white"/>
<path d="M76.4072 15.2918C77.4732 15.815 78.1515 16.9004 78.481 18.5672L78.5779 19.0711H69.5464L69.6433 18.5284C69.7789 17.8694 70.0309 17.2492 70.4379 16.6872C70.8255 16.1445 71.3488 15.6988 71.9302 15.3693C73.3644 14.7491 74.973 14.7297 76.4072 15.2918ZM71.7364 11.5706C70.341 11.9195 69.0425 12.6366 67.9959 13.625C66.0772 15.4856 65.2051 17.5206 65.0888 20.5053C64.9919 22.7728 65.2632 24.1101 66.0966 25.8156C66.5811 26.8235 67.2788 27.715 68.1122 28.4515C68.9456 29.1879 69.934 29.75 70.9806 30.0988C72.8024 30.6415 74.7211 30.7384 76.5816 30.3896C78.1127 30.0407 79.5275 29.2461 80.6129 28.122C81.737 26.9979 82.6672 25.5055 82.3184 25.3699C82.2215 25.3311 81.2912 25.0598 80.3222 24.7497C78.6166 24.2264 78.5003 24.2264 78.3647 24.4784C78.074 24.866 77.7639 25.2342 77.415 25.5637C76.9886 26.0482 76.4266 26.3971 75.8258 26.5715C74.1009 27.0948 72.1628 26.7459 71.0581 25.7381C70.2635 24.9047 69.7402 23.8775 69.527 22.7534L69.4301 22.1139H82.6672L82.7641 21.7844C82.9386 21.2999 82.706 18.8772 82.3765 17.6175C82.0083 16.0864 81.2331 14.691 80.109 13.6056C78.481 11.9776 76.7561 11.338 74.1009 11.3574C73.3063 11.338 72.5117 11.4156 71.7364 11.5706Z" fill="white"/>
<path d="M94.0825 15.1756C96.5633 16.0671 97.8618 19.2069 97.1641 22.6954C96.6021 25.4475 95.3423 26.7461 93.1135 26.9205C92.0088 27.0562 90.9041 26.8042 89.9738 26.2034C89.121 25.3894 88.5396 24.3428 88.2877 23.18C88.0745 21.707 88.0745 20.1953 88.2877 18.7223C88.6365 17.075 89.7219 15.6408 90.9235 15.195C91.9507 14.943 93.036 14.9237 94.0825 15.1756ZM91.3111 11.4351C90.4196 11.6677 89.5668 12.0553 88.7916 12.5592L88.1326 13.0049V11.7839H84.489V38.3359H88.5784V29.2268L89.1598 29.5951C89.5862 29.847 90.0319 30.0602 90.4971 30.2346C92.0282 30.6029 93.598 30.661 95.1485 30.4478C98.1138 29.847 100.711 27.0368 101.409 23.7033C101.699 21.9008 101.699 20.079 101.409 18.2766C101.118 16.7261 100.401 15.2725 99.3541 14.0903C98.3076 12.908 96.9509 12.0359 95.4392 11.5708C94.0632 11.3188 92.6677 11.28 91.3111 11.4351Z" fill="white"/>
<path d="M27.2573 11.7838C25.7456 12.0164 24.3695 12.7722 23.4005 13.9545L22.9354 14.5553V11.7838H19.2917V30.157H23.3811V24.9435C23.3811 20.1564 23.4199 19.6525 23.6912 18.7416C23.8656 18.1408 24.1757 17.5787 24.6021 17.0942C25.0091 16.6096 25.5324 16.222 26.0944 15.9507C26.7728 15.6018 27.5286 15.4468 28.3039 15.5243H29.6218V11.8419L29.1566 11.745C28.5171 11.6094 27.8775 11.6287 27.2573 11.7838Z" fill="white"/>
<path d="M49.5646 13.5476L49.6034 15.3306L53.906 15.3694C56.2511 15.3887 58.1891 15.4469 58.1891 15.4857C58.1891 15.5244 56.0573 18.6835 53.4602 22.4822C50.8632 26.3002 48.7119 29.5756 48.6731 29.7694L48.615 30.1183H64.2747V26.4747H59.7202C57.2201 26.4747 55.1657 26.4359 55.1657 26.4165C55.1657 26.3778 57.317 23.1993 59.9528 19.3425C62.5692 15.505 64.7399 12.2103 64.7399 12.0552C64.7399 11.7451 64.5848 11.7451 57.1426 11.7451H49.5259L49.5646 13.5476Z" fill="white"/>
</svg>
