<svg width="33" height="36" viewBox="0 0 33 36" fill="none" xmlns="http://www.w3.org/2000/svg">
<path d="M14.1525 0.204171L13.9485 0.408078V1.43464C13.9485 1.99011 13.9767 2.53151 14.0189 2.62995C14.1032 2.84792 14.4618 3.0448 14.6728 2.98151C14.7571 2.96042 14.8978 2.86901 14.9892 2.79167C15.1368 2.65105 15.1439 2.60183 15.1439 1.49792C15.1439 0.36589 15.1439 0.344796 14.9681 0.176046C14.729 -0.0700474 14.4196 -0.055985 14.1525 0.204171Z" fill="#0EB062"/>
<path d="M3.26103 2.48934C1.87588 2.79871 0.982909 3.79715 0.800096 5.2245C0.638378 6.50418 1.14463 8.14247 2.17822 9.71747C2.64932 10.4347 4.0626 11.8268 4.85713 12.3542C7.90869 14.3932 10.904 14.0979 11.8462 11.6792C12.0642 11.1237 12.1063 9.97762 11.9446 9.23231C11.2556 6.09637 7.99306 2.96746 4.87822 2.46825C4.29463 2.36981 3.75322 2.37684 3.26103 2.48934ZM5.43369 3.83934C6.62197 4.24012 7.6415 4.8659 8.5415 5.7659C10.686 7.9034 11.4946 10.7018 10.3134 11.9182C9.89853 12.3472 9.52588 12.4807 8.74541 12.4737C7.97197 12.4737 7.4376 12.3472 6.65713 11.9886C5.82744 11.6089 4.98369 11.0042 4.24541 10.2729C3.47197 9.50653 3.0501 8.937 2.64228 8.12137C2.17822 7.19325 2.05166 6.73621 2.00947 5.88543C1.98135 5.14012 1.98135 5.112 2.19932 4.67606C2.47353 4.12059 2.89541 3.80418 3.57744 3.6284C3.89385 3.55106 4.91338 3.66356 5.43369 3.83934Z" fill="black"/>
<path d="M25.8806 2.50337C22.829 3.05181 19.44 5.77993 17.9282 8.88774C17.0564 10.6877 16.7681 12.3401 17.1126 13.669C17.3517 14.6042 17.5907 14.9627 18.8353 16.2284C20.0868 17.5081 20.6775 17.951 21.479 18.2182C21.936 18.3659 22.1189 18.387 22.9837 18.3799C24.0665 18.3729 24.615 18.2604 25.6556 17.8456C28.8267 16.5799 31.7868 13.4018 32.6868 10.301C33.1228 8.80337 33.0735 7.45337 32.5532 6.34946C32.3212 5.86431 32.1595 5.67446 30.9782 4.48618C29.79 3.27681 29.6071 3.12915 29.1009 2.87603C28.1446 2.40493 27.097 2.2854 25.8806 2.50337ZM28.236 3.79712C29.8462 4.39478 30.3806 6.1104 29.6493 8.33228C28.6368 11.4331 25.7962 14.2245 22.7025 15.1596C22.1681 15.3213 21.936 15.3495 21.1907 15.3565C20.2134 15.3635 19.8337 15.2721 19.2642 14.8995C18.1532 14.1612 17.865 12.4456 18.5329 10.5471C19.2993 8.38149 20.797 6.49712 22.836 5.11899C24.7907 3.81118 26.8931 3.29087 28.236 3.79712ZM31.597 7.2354C32.04 8.63462 31.5196 10.6526 30.2048 12.6213C29.5509 13.6057 28.1517 14.9979 27.1462 15.6659C25.4235 16.812 23.6025 17.3815 22.3368 17.1635C21.8446 17.0721 21.0501 16.7627 21.0501 16.6573C21.0501 16.6221 21.2329 16.594 21.4579 16.594C22.8079 16.587 24.629 15.8627 26.3446 14.6463C27.2517 14.0065 28.8056 12.4104 29.4032 11.5104C30.465 9.92134 31.1681 8.00884 31.1751 6.72212V6.43384L31.3157 6.60962C31.3931 6.70806 31.5196 6.98931 31.597 7.2354Z" fill="black"/>
<path d="M24.179 7.42524C22.8642 7.86118 21.6618 8.27603 21.5001 8.33228C21.2048 8.44478 21.0501 8.65571 21.0501 8.95806C21.0501 9.17603 21.3735 9.49243 21.6056 9.49243C21.704 9.49243 22.9767 9.09868 24.4251 8.61353C26.3024 7.98774 27.097 7.69243 27.1884 7.58696C27.4767 7.2354 27.2095 6.60259 26.7665 6.61665C26.661 6.61665 25.4938 6.98228 24.179 7.42524Z" fill="black"/>
<path d="M23.1595 10.8635C21.6829 11.3487 21.472 11.4823 21.472 11.8901C21.472 12.1573 21.7532 12.4456 22.0134 12.4456C22.3509 12.4456 24.8681 11.5877 25.0368 11.412C25.2126 11.2362 25.2478 10.8635 25.1071 10.6807C25.0087 10.5471 24.7556 10.4065 24.622 10.4065C24.5728 10.4065 23.9118 10.6104 23.1595 10.8635Z" fill="black"/>
<path d="M11.1501 3.1854C11.0587 3.28384 10.9954 3.43853 10.9954 3.56509C10.9954 4.13462 11.1853 4.21899 12.5001 4.21899C13.4915 4.21899 13.5196 4.21196 13.7306 4.03618C14.0118 3.80415 14.0329 3.45259 13.7728 3.19946C13.604 3.02368 13.5829 3.02368 12.4509 3.02368C11.34 3.02368 11.2978 3.03071 11.1501 3.1854Z" fill="#0EB062"/>
<path d="M15.3688 3.16436C15.0595 3.45264 15.1228 3.93779 15.4954 4.12764C15.7345 4.24717 17.5767 4.24717 17.8157 4.12764C18.1954 3.93779 18.2587 3.4667 17.9563 3.16436C17.8298 3.03779 17.7173 3.02373 16.6696 3.02373C15.6149 3.02373 15.5095 3.03779 15.3688 3.16436Z" fill="#0EB062"/>
<path d="M14.2228 4.3104C13.9907 4.48618 13.9485 4.69712 13.9485 5.69556C13.9485 6.96821 14.0329 7.17212 14.5884 7.17212C14.715 7.17212 14.8626 7.10181 14.9681 6.99634C15.1368 6.82759 15.1439 6.80649 15.1439 5.69556C15.1439 4.58462 15.1368 4.56353 14.9681 4.39478C14.7782 4.20493 14.4126 4.16274 14.2228 4.3104Z" fill="#0EB062"/>
<path d="M8.85088 14.6323C7.64854 14.787 6.04541 15.4339 5.08916 16.1651C4.83604 16.355 3.93604 17.2198 3.07823 18.0847C1.85479 19.3222 1.45401 19.7792 1.16573 20.2503C0.518853 21.305 0.146196 22.4581 0.0336964 23.7659C-0.388179 28.6807 3.19776 33.8206 8.18291 35.4307C11.1782 36.4011 13.9274 36.0917 16.1212 34.5448C16.7399 34.1089 19.2642 31.6128 19.7985 30.9097C20.9165 29.4261 21.4579 27.6682 21.3735 25.7698C21.2821 23.7026 20.6212 21.7339 19.4259 19.9198C18.7509 18.9073 17.0985 17.2409 16.1282 16.6011C13.8431 15.0823 11.129 14.3511 8.85088 14.6323ZM11.579 15.9682C13.7939 16.4112 15.5306 17.3886 17.2181 19.1323C18.6735 20.637 19.5384 22.2401 19.9954 24.2932C20.9024 28.3432 18.6454 31.9081 14.7501 32.5901C12.9431 32.9065 10.6579 32.4073 8.68917 31.2823C7.01573 30.319 5.27901 28.4909 4.41417 26.7753C3.65479 25.2706 3.16963 23.1823 3.2962 21.9378C3.59854 18.8159 5.51807 16.5729 8.42901 15.9261C9.11807 15.7784 10.7423 15.7925 11.579 15.9682ZM2.1501 21.6776C1.98838 24.0472 2.64932 26.4096 4.0837 28.5823C4.74463 29.5807 6.39698 31.2261 7.43057 31.9151C9.58213 33.3425 12.3032 34.0878 14.4407 33.8347C14.7712 33.7925 15.0524 33.7714 15.0665 33.7854C15.1087 33.8347 14.1243 34.2917 13.6673 34.4393C12.8446 34.6995 12.3876 34.7628 11.347 34.7628C9.89151 34.7487 8.75245 34.4815 7.37432 33.8206C4.74463 32.555 2.60713 30.1784 1.69307 27.4925C1.32042 26.4096 1.20792 25.6011 1.24307 24.3636C1.27823 23.0557 1.41182 22.4651 1.86885 21.4948C2.03057 21.1573 2.1712 20.8901 2.17823 20.9042C2.19229 20.9182 2.17823 21.2628 2.1501 21.6776Z" fill="black"/>
<path d="M8.75245 17.0933C6.80479 17.473 5.34229 18.7878 4.7376 20.7073C4.51963 21.3964 4.46338 22.9152 4.6251 23.787C4.96963 25.587 5.86963 27.2253 7.33213 28.6948C8.52745 29.8831 9.67354 30.6003 11.136 31.0644C12.0782 31.3597 12.7321 31.4581 13.7024 31.4581C15.0314 31.4441 16.1212 31.0644 17.1267 30.2698C18.5329 29.1448 19.236 27.0777 18.9126 24.9753C18.6243 23.0698 17.7032 21.3331 16.1985 19.8284C14.736 18.3589 13.1189 17.4589 11.3329 17.1214C10.7212 17.0089 9.27276 16.9878 8.75245 17.0933ZM11.0306 18.2886C14.3142 18.8581 17.2603 21.9027 17.7454 25.2355C18.2095 28.3995 15.9103 30.6988 12.7462 30.2347C9.61729 29.7777 6.69229 27.1128 5.89073 23.9909C5.67276 23.1472 5.64463 22.0152 5.82041 21.2769C6.09463 20.1238 6.86104 19.1605 7.91573 18.6402C8.86495 18.1691 9.73682 18.0706 11.0306 18.2886Z" fill="black"/>
<path d="M11.579 19.9831C11.4946 20.0745 10.8688 21.2628 10.1868 22.6339C8.85791 25.3128 8.85088 25.3269 9.20947 25.6433C9.39931 25.8191 9.65244 25.8472 9.87744 25.7347C10.0813 25.6222 12.5423 20.6652 12.5423 20.3699C12.5423 19.8847 11.9024 19.6316 11.579 19.9831Z" fill="black"/>
<path d="M12.9431 24.0613C12.7814 24.1175 12.6407 24.3495 12.0853 25.4605C11.4243 26.7683 11.3329 27.0636 11.4876 27.3519C11.6001 27.5558 11.9517 27.6472 12.2118 27.5347C12.4087 27.4503 12.5212 27.2675 13.1259 26.0441C13.7868 24.7081 13.8079 24.6378 13.7306 24.4058C13.6743 24.2441 13.5759 24.1386 13.4142 24.0753C13.2876 24.0191 13.1681 23.9769 13.161 23.9839C13.147 23.9839 13.0485 24.0191 12.9431 24.0613Z" fill="black"/>
<path d="M23.722 21.6776C23.497 21.7901 23.3423 22.1065 23.4056 22.3456C23.4267 22.4581 23.7571 22.8448 24.172 23.2526C24.8329 23.9065 24.9243 23.9768 25.1563 23.9768C25.5009 23.9768 25.761 23.7237 25.761 23.3862C25.761 23.1682 25.6767 23.0557 25.1282 22.4721C24.5728 21.8956 24.1649 21.5862 23.954 21.5862C23.9259 21.5862 23.8204 21.6284 23.722 21.6776Z" fill="#0EB062"/>
<path d="M27.1884 22.3737C26.5064 23.0487 26.3939 23.1893 26.3939 23.3862C26.3939 23.7377 26.6259 23.9768 26.9704 23.9768C27.2376 23.9768 27.3009 23.9276 27.9196 23.3229C28.8478 22.4159 28.9603 22.1698 28.5806 21.7901C28.222 21.4315 28.0884 21.4877 27.1884 22.3737Z" fill="#0EB062"/>
<path d="M24.2001 25.362C23.7782 25.7768 23.4196 26.1917 23.3985 26.276C23.3071 26.6346 23.6024 27.0002 23.9962 27.0002C24.2212 27.0002 24.3267 26.9229 25.0017 26.2338C25.6767 25.5588 25.761 25.4463 25.761 25.2284C25.761 24.9049 25.4798 24.6096 25.1774 24.6096C25.0017 24.6096 24.8329 24.7432 24.2001 25.362Z" fill="#0EB062"/>
<path d="M26.7103 24.694C26.4923 24.8206 26.4009 24.9753 26.3939 25.2354C26.3939 25.4393 26.4853 25.5589 27.1181 26.1987C27.5681 26.6557 27.9126 26.937 28.0392 26.9721C28.4329 27.0706 28.8548 26.6557 28.7564 26.276C28.7071 26.0581 27.8423 25.1159 27.4204 24.8065C27.1251 24.5956 26.9353 24.5674 26.7103 24.694Z" fill="#0EB062"/>
</svg>
