<svg width="63" height="62" viewBox="0 0 63 62" fill="none" xmlns="http://www.w3.org/2000/svg">
<path opacity="0.8" d="M31.4517 61.7537C48.3423 61.7537 62.0347 48.0611 62.0347 31.1704C62.0347 14.2798 48.3423 0.587158 31.4517 0.587158C14.5612 0.587158 0.868652 14.2798 0.868652 31.1704C0.868652 48.0611 14.5612 61.7537 31.4517 61.7537Z" fill="#010101"/>
<path d="M27.8276 42.3919L36.9559 32.0037C37.0528 31.8874 37.1304 31.7518 37.1885 31.6162C37.2466 31.4805 37.2661 31.3255 37.2661 31.1899C37.2661 31.0542 37.2466 30.899 37.1885 30.7633C37.1304 30.6276 37.0528 30.4921 36.9559 30.3758L27.8276 19.9876C27.595 19.7162 27.2849 19.5806 26.9167 19.5613C26.5484 19.5419 26.2578 19.6968 26.0058 19.9682C25.7539 20.2589 25.6182 20.6078 25.6182 21.0148C25.6182 21.4218 25.7539 21.7705 26.0058 22.0612L34.0294 31.1899L26.0058 40.3182C25.7539 40.6089 25.6182 40.9579 25.6182 41.3649C25.6182 41.7719 25.7345 42.1014 25.9864 42.3727C26.2384 42.6634 26.5484 42.8185 26.9167 42.8185C27.2849 42.8185 27.595 42.6632 27.8276 42.3919Z" fill="#E3E3E3"/>
</svg>
