<svg width="40" height="36" viewBox="0 0 40 36" fill="none" xmlns="http://www.w3.org/2000/svg">
<path d="M10.3272 0.112923C8.9122 0.459198 7.71611 1.70264 7.41905 3.13495C7.36432 3.4104 7.33305 5.20473 7.33305 8.54155V13.531L5.2145 13.5547L3.09594 13.5783L2.90832 13.7986C2.78324 13.9482 2.7207 14.1134 2.7207 14.3259C2.7207 14.5384 2.78324 14.7037 2.90832 14.8532L3.09594 15.0735L5.2145 15.0972L7.33305 15.1208V20.1103C7.33305 23.4471 7.36432 25.2414 7.41905 25.5169C7.72393 26.9885 8.98256 28.2556 10.4444 28.5625C10.7259 28.6176 12.7819 28.6491 16.8705 28.6491H22.89L22.9369 28.8616C23.0698 29.5148 23.3825 30.5221 23.5857 30.9707C24.43 32.8358 26.1968 34.5751 28.0417 35.3463C29.1831 35.8264 29.9961 35.9917 31.2938 35.9995C32.5994 36.0074 33.1935 35.9208 34.2254 35.5509C35.5622 35.0866 36.5394 34.457 37.5479 33.4103C39.987 30.892 40.6671 27.264 39.3146 23.998C38.7518 22.6444 37.415 20.9917 36.2814 20.2677L35.7889 19.9529V17.4109C35.7889 14.6564 35.7733 14.5305 35.359 14.3416C35.101 14.2236 34.9134 14.2236 34.6554 14.3416C34.2489 14.5227 34.2254 14.68 34.2254 17.0489C34.2254 19.0872 34.2176 19.221 34.0925 19.1659C34.0144 19.1423 33.7564 19.0636 33.5218 19.0006C30.6294 18.2608 27.5961 19.0872 25.4307 21.212C23.9844 22.6286 23.1401 24.3442 22.8822 26.3747L22.7883 27.0751L16.7219 27.0594C10.7415 27.0357 10.6477 27.0357 10.2959 26.8705C9.77995 26.6265 9.4047 26.2566 9.15454 25.753L8.93565 25.3044V14.3259V3.34744L9.15454 2.89886C9.4047 2.39518 9.77995 2.0253 10.2959 1.78133C10.6399 1.62394 10.7962 1.61607 13.8451 1.59246L17.0268 1.56885V4.99224V8.42351L17.2535 8.67534C17.4333 8.87996 17.5428 8.93505 17.7851 8.93505C18.0431 8.93505 18.2933 8.77765 19.763 7.71522C20.6854 7.05415 21.4985 6.50326 21.561 6.50326C21.6235 6.50326 22.4366 7.04628 23.359 7.71522C24.8756 8.817 25.0633 8.92718 25.3447 8.92718C25.587 8.91931 25.7043 8.86422 25.8763 8.66747L26.0952 8.42351V4.99224V1.56885L29.2847 1.59246L32.4665 1.61607L32.9121 1.83643C33.4124 2.08826 33.7798 2.46601 34.0222 2.98542C34.1785 3.32383 34.1863 3.52058 34.2254 5.7871C34.2489 7.12498 34.2958 8.28972 34.3349 8.36842C34.413 8.53368 34.7805 8.7383 35.0072 8.7383C35.2652 8.7383 35.5935 8.53368 35.6951 8.30546C35.8202 8.03788 35.828 3.72519 35.7029 3.13495C35.3981 1.66329 34.1394 0.39624 32.6775 0.0893135C32.0443 -0.0444756 10.8744 -0.0208626 10.3272 0.112923ZM24.5317 4.10295V6.62918L24.2815 6.4403C24.1408 6.33799 23.531 5.89728 22.9369 5.47231C22.03 4.81911 21.7955 4.68532 21.561 4.68532C21.3186 4.68532 21.0685 4.83485 20.0288 5.58248C19.3486 6.07829 18.7389 6.519 18.692 6.55835C18.6138 6.61344 18.5903 6.11763 18.5903 4.10295V1.57672H21.561H24.5317V4.10295ZM33.1701 20.5431C35.6169 21.1806 37.5479 23.1244 38.2202 25.6192C38.3609 26.1307 38.3922 26.4612 38.3922 27.3899C38.3922 28.3185 38.3609 28.6491 38.2202 29.1606C37.5479 31.6554 35.6482 33.5756 33.1701 34.2445C32.3492 34.4728 30.6294 34.4964 29.8241 34.2918C27.26 33.6464 25.29 31.7104 24.602 29.1606C24.3519 28.2556 24.3519 26.5242 24.602 25.6192C25.3212 22.9355 27.4632 20.9366 30.1447 20.4251C30.9577 20.2677 32.3492 20.3227 33.1701 20.5431Z" fill="black"/>
<path d="M30.8873 23.7226L30.6684 23.9115L30.645 25.2572L30.6215 26.6029H29.8398C28.7688 26.6029 28.4404 26.784 28.4404 27.3899C28.4404 27.7205 28.5577 27.9172 28.8313 28.0589C29.1518 28.2241 31.4736 28.232 31.7942 28.0589C32.1694 27.87 32.2007 27.6575 32.1772 25.7058L32.1538 23.9115L31.9349 23.7226C31.6378 23.4629 31.1844 23.4629 30.8873 23.7226Z" fill="#0EB062"/>
<path d="M0.383254 9.87164C-0.140522 10.1628 -0.124887 10.997 0.414524 11.241C0.727226 11.3905 4.22167 11.3748 4.51092 11.2253C5.02688 10.9498 5.02688 10.1471 4.51092 9.87164C4.20604 9.71424 0.664686 9.71424 0.383254 9.87164Z" fill="black"/>
<path d="M34.6241 10.816C33.944 11.1937 34.2332 12.2798 35.0072 12.2798C35.4059 12.2798 35.7889 11.8942 35.7889 11.5007C35.7889 10.9104 35.1401 10.5248 34.6241 10.816Z" fill="black"/>
<path d="M0.383254 17.4267C-0.140522 17.7179 -0.124887 18.5521 0.414524 18.796C0.727226 18.9456 4.22167 18.9298 4.51092 18.7803C5.02688 18.5049 5.02688 17.7021 4.51092 17.4267C4.20604 17.2693 0.664686 17.2693 0.383254 17.4267Z" fill="black"/>
<path d="M12.8757 17.702C12.5004 18.0876 12.5786 18.6858 13.0399 18.9297C13.376 19.1029 17.1597 19.1029 17.4959 18.9297C17.9727 18.6779 18.0587 18.0483 17.66 17.6941L17.4177 17.4738H15.26H13.1024L12.8757 17.702Z" fill="black"/>
<path d="M12.8757 21.4796C12.4848 21.881 12.5943 22.5263 13.0946 22.7388C13.2588 22.8017 14.1812 22.8253 16.4171 22.8096L19.5128 22.786L19.7161 22.5971C19.9584 22.361 20.0444 22.0226 19.9193 21.7157C19.7239 21.2592 19.6848 21.2514 16.2451 21.2514H13.1024L12.8757 21.4796Z" fill="black"/>
</svg>
