<svg width="32" height="32" viewBox="0 0 32 32" fill="none" xmlns="http://www.w3.org/2000/svg">
<path opacity="0.5" fill-rule="evenodd" clip-rule="evenodd" d="M18.9106 16.1274L14.3367 18.8023V13.4919L18.9106 16.1274ZM24.8993 15.9921C24.8993 12.6586 24.783 11.3017 23.969 10.4489C23.1356 9.59617 22.2828 9.51868 15.8484 9.51868C9.41392 9.51868 8.56116 9.57679 7.72778 10.4489C6.8944 11.3017 6.79751 12.6586 6.79751 15.9921C6.79751 19.3256 6.91378 20.682 7.72778 21.5348C8.56116 22.3876 9.41392 22.4651 15.8484 22.4651C22.2828 22.4651 23.1356 22.4069 23.969 21.5348C24.8024 20.6627 24.8993 19.3063 24.8993 15.9921ZM10.0535 0.487305C4.70436 0.487305 0.363037 4.82865 0.363037 10.1778V21.8064C0.363037 27.1556 4.70436 31.4969 10.0535 31.4969H21.682C27.0311 31.4969 31.3725 27.1556 31.3725 21.8064V10.1778C31.3725 4.82865 27.0311 0.487305 21.682 0.487305H10.0535Z" fill="white"/>
</svg>
